<?xml version="1.0" encoding="UTF-8" standalone="no"?>
<svg
   xmlns:dc="http://purl.org/dc/elements/1.1/"
   xmlns:cc="http://creativecommons.org/ns#"
   xmlns:rdf="http://www.w3.org/1999/02/22-rdf-syntax-ns#"
   xmlns:svg="http://www.w3.org/2000/svg"
   xmlns="http://www.w3.org/2000/svg"
   xmlns:sodipodi="http://sodipodi.sourceforge.net/DTD/sodipodi-0.dtd"
   xmlns:inkscape="http://www.inkscape.org/namespaces/inkscape"
   width="730.667"
   height="317"
   version="1.1"
   id="svg76"
   sodipodi:docname="cincinnati-skyline.svg"
   inkscape:version="0.92.2 5c3e80d, 2017-08-06">
  <metadata
     id="metadata82">
    <rdf:RDF>
      <cc:Work
         rdf:about="">
        <dc:format>image/svg+xml</dc:format>
        <dc:type
           rdf:resource="http://purl.org/dc/dcmitype/StillImage" />
      </cc:Work>
    </rdf:RDF>
  </metadata>
  <defs
     id="defs80" />
  <sodipodi:namedview
     pagecolor="#ffffff"
     bordercolor="#666666"
     borderopacity="1"
     objecttolerance="10"
     gridtolerance="10"
     guidetolerance="10"
     inkscape:pageopacity="0"
     inkscape:pageshadow="2"
     inkscape:window-width="1857"
     inkscape:window-height="968"
     id="namedview78"
     showgrid="false"
     inkscape:zoom="1.6573898"
     inkscape:cx="359.40688"
     inkscape:cy="158.5"
     inkscape:window-x="0"
     inkscape:window-y="0"
     inkscape:window-maximized="0"
     inkscape:current-layer="svg76" />
  <path
     d="M 256.78125 88.976562 L 256.42383 89.183594 C 250.91083 92.273594 246.21534 97.6875 242.90234 104.5625 A 53.625 53.625 0 0 0 241.13672 108.72656 C 239.43072 113.34756 238.32864 118.48987 237.93164 123.92188 L 237.82617 123.92188 A 0.712 0.712 0 0 0 237.10938 124.62891 L 237.10938 125.48047 L 235.91211 125.48047 L 235.91211 126.65625 L 233.35938 126.65625 L 233.35938 127.05273 L 232.56445 127.05273 L 232.56445 139.08203 L 230.1875 139.08203 L 230.1875 139.4043 L 229.43945 139.4043 L 229.43945 148.2168 L 225.61914 148.2168 L 225.61914 148.54297 L 224.7207 148.54297 L 224.7207 291.92578 L 220.45117 291.92578 L 220.45117 231.71289 A 0.662 0.662 0 0 0 219.79297 231.06445 L 215.97266 231.06445 L 215.97266 228.96875 L 216.05469 228.96875 A 0.667 0.667 0 0 0 216.71484 228.30859 L 216.71484 226.24219 C 216.71484 225.88719 216.41369 225.58594 216.05469 225.58594 L 212.08789 225.58594 L 212.08789 223.48828 L 212.30664 223.48828 C 212.66664 223.48828 212.96289 223.19589 212.96289 222.83789 L 212.96289 220.77539 A 0.662 0.662 0 0 0 212.30664 220.11914 L 208.41797 220.11914 L 208.41797 218.01562 L 208.56641 218.01562 A 0.654 0.654 0 0 0 209.22461 217.36328 L 209.22461 215.30859 A 0.66 0.66 0 0 0 208.56641 214.64844 L 204.59961 214.64844 L 204.59961 212.54883 L 204.81641 212.54883 A 0.656 0.656 0 0 0 205.47852 211.88867 L 205.47852 209.82812 A 0.646 0.646 0 0 0 204.81641 209.18164 L 201 209.18164 L 201 207.08008 L 201.08203 207.08008 A 0.664 0.664 0 0 0 201.73828 206.42578 L 201.73828 204.35938 A 0.666 0.666 0 0 0 201.08203 203.69922 L 197.33203 203.69922 L 197.33203 201.13281 C 197.62803 201.06481 197.87109 200.83963 197.87109 200.51562 L 197.87109 195.3125 A 0.657 0.657 0 0 0 197.2168 194.65234 L 181.71289 194.65234 L 181.45898 191.85742 L 181.45898 194.65234 L 165.5957 194.65234 L 165.5957 304.24414 L 163.75977 304.24414 L 163.75977 258.44727 L 158.58984 258.44727 L 158.58984 185.49609 L 153.78906 185.49609 L 153.78906 180.17578 L 151.51758 180.17578 L 151.51758 179.50781 L 151.38086 179.36719 L 150.53516 179.36719 L 150.40039 179.50781 L 150.40039 180.17578 L 144.76758 180.17578 L 144.76758 171.53516 C 144.76758 170.01216 138.87139 168.77539 131.65039 168.77539 C 124.44039 168.77539 118.54688 170.01216 118.54688 171.53516 L 118.54688 180.17578 L 110.99023 180.17578 L 110.99023 179.61133 L 111.06055 179.61133 L 111.12695 179.54297 L 111.12695 178.77148 L 111.05859 178.69922 L 110.6875 178.69922 L 110.61914 178.77148 L 110.61914 179.54297 L 110.6875 179.61133 L 110.75781 179.61133 L 110.75781 180.17578 L 109.52344 180.17578 L 109.52344 185.49609 L 104.72656 185.49609 L 104.72656 258.44727 L 99.556641 258.44727 L 99.556641 288.39844 L 92.195312 288.39844 L 88.837891 292.31641 L 85.572266 296.12305 L 85.332031 296.12305 L 85.332031 257.43359 L 80.787109 256.46875 L 80.787109 244.06836 L 78.339844 244.06836 L 78.339844 241.94531 L 75.621094 240.3125 L 75.621094 227.0957 L 66.494141 225.30664 L 63.173828 213.33203 L 62.300781 213.33203 L 62.300781 209.66797 L 62.519531 209.66797 L 62.519531 209.14258 L 62.300781 209.14258 L 62.300781 208.22461 L 61.427734 208.22461 L 61.427734 209.14258 L 60.992188 209.14258 L 60.992188 209.66797 L 61.427734 209.66797 L 61.427734 213.33203 L 61.207031 213.33203 L 57.003906 225.73047 L 48.435547 227.74805 L 48.435547 242.27148 L 39.464844 245.20898 L 42.181641 245.20898 L 42.181641 256.63281 L 36.746094 257.93945 L 36.746094 274.08008 L 36.572266 273.24609 L 34.742188 282.0957 L 32.933594 290.85547 L 32.824219 290.85547 L 32.824219 291.05664 L 33.275391 291.05664 L 33.275391 292.44336 L 33.619141 294.17383 L 33.355469 294.17383 L 33.355469 294.40234 L 33.669922 294.40234 L 33.818359 295.13672 L 33.818359 295.44141 L 31.175781 292.36133 L 27.171875 287.6875 L 23.169922 292.36133 L 22.685547 292.92578 L 22.685547 291.18945 L 22.730469 291.03906 L 22.730469 290.63086 L 22.890625 290.63086 L 22.890625 290.53125 L 22.685547 290.27539 L 22.685547 281.01367 L 22.800781 280.67383 L 22.800781 280.4668 L 23.064453 280.4668 L 23.064453 280.23242 L 23.525391 279.83594 L 23.525391 279.64062 L 23.699219 279.64062 L 23.699219 279.47656 L 23.341797 279.47656 L 23.341797 279.32422 L 22.685547 279.25391 L 22.685547 271.99414 L 22.800781 271.50781 L 22.800781 271.29297 L 22.994141 271.29297 L 22.994141 271.05664 L 23.318359 270.66016 L 23.318359 270.46484 L 23.435547 270.46484 L 23.435547 270.28906 L 23.193359 270.28906 L 23.193359 270.14844 L 22.855469 270.09961 L 22.855469 265.98828 L 22.470703 265.98828 L 22.40625 265.63281 L 22.685547 265.53125 L 22.753906 265.38672 L 22.441406 265.38672 L 22.662109 265.33008 L 22.71875 265.19141 L 22.324219 265.19141 L 22.316406 265.15234 L 22.205078 264.55664 L 22.466797 264.4668 L 22.523438 264.32422 L 22.222656 264.32422 L 22.429688 264.27148 L 22.486328 264.13086 L 22.125 264.13086 L 22.003906 263.46289 L 22.199219 263.41602 L 22.269531 263.27539 L 21.96875 263.27539 L 21.96875 263.26562 L 22.167969 263.20898 L 22.234375 263.06836 L 21.929688 263.06836 L 21.818359 262.46484 L 21.818359 262.35938 L 22.003906 262.25977 L 21.818359 262.16797 L 21.818359 261.36914 C 21.858359 261.32814 21.892547 261.28261 22.060547 261.22461 C 22.302547 261.14261 22.442844 260.97367 22.214844 260.88867 C 21.979844 260.81167 22.257812 260.71484 22.257812 260.71484 C 22.257812 260.71484 22.154953 260.60005 21.876953 260.74805 L 21.648438 260.5918 L 21.611328 260.53125 L 21.519531 260.48438 L 21.494141 260.49609 L 21.484375 260.48633 L 21.390625 260.53125 L 21.357422 260.5918 L 21.128906 260.74805 C 20.838906 260.60005 20.744141 260.71484 20.744141 260.71484 C 20.744141 260.71484 21.024969 260.81167 20.792969 260.88867 C 20.562969 260.97367 20.699688 261.14261 20.929688 261.22461 C 21.109687 261.28261 21.143547 261.32814 21.185547 261.36914 L 21.185547 262.20117 L 21.150391 262.22461 L 21 262.25977 L 21.150391 262.30078 L 21.185547 262.31641 L 21.185547 262.42773 L 21.070312 263.06836 L 20.769531 263.06836 L 20.828125 263.20898 L 21.029297 263.26562 L 21.029297 263.27539 L 20.734375 263.27539 L 20.792969 263.41602 L 20.994141 263.46289 L 20.871094 264.13086 L 20.503906 264.13086 L 20.572266 264.27148 L 20.779297 264.32422 L 20.46875 264.32422 L 20.537109 264.4668 L 20.792969 264.56445 L 20.691406 265.15234 L 20.677734 265.19141 L 20.285156 265.19141 L 20.34375 265.33008 L 20.556641 265.38672 L 20.251953 265.38672 L 20.306641 265.53125 L 20.595703 265.63281 L 20.533203 265.98828 L 20.146484 265.98828 L 20.146484 267.90039 L 19.177734 267.90039 L 19.177734 269.11328 L 18.414062 269.11328 L 18.414062 267.90039 L 16.939453 267.90039 L 16.939453 269.11328 L 16.167969 269.11328 L 16.167969 267.90039 L 14.689453 267.90039 L 14.689453 269.11328 L 13.929688 269.11328 L 13.929688 267.90039 L 13.330078 267.90039 L 13.330078 265.98828 L 12.943359 265.98828 L 12.876953 265.63281 L 13.154297 265.53125 L 13.224609 265.38672 L 12.912109 265.38672 L 13.132812 265.33008 L 13.189453 265.19141 L 12.794922 265.19141 L 12.785156 265.15234 L 12.675781 264.55664 L 12.935547 264.4668 L 12.994141 264.32422 L 12.695312 264.32422 L 12.900391 264.27148 L 12.960938 264.13086 L 12.597656 264.13086 L 12.476562 263.46289 L 12.667969 263.41602 L 12.728516 263.27539 L 12.439453 263.27539 L 12.439453 263.26562 L 12.636719 263.20898 L 12.695312 263.06836 L 12.398438 263.06836 L 12.289062 262.46484 L 12.289062 262.35938 L 12.476562 262.25977 L 12.289062 262.16797 L 12.289062 261.36914 C 12.329062 261.32814 12.365203 261.28261 12.533203 261.22461 C 12.774203 261.14261 12.900641 260.97367 12.681641 260.88867 C 12.450641 260.81167 12.728516 260.71484 12.728516 260.71484 C 12.728516 260.71484 12.623609 260.60005 12.349609 260.74805 L 12.117188 260.5918 L 12.080078 260.53125 L 11.990234 260.48438 L 11.96875 260.49609 L 11.955078 260.48633 L 11.863281 260.53125 L 11.828125 260.5918 L 11.597656 260.74805 C 11.307656 260.60005 11.216797 260.71484 11.216797 260.71484 C 11.216797 260.71484 11.493719 260.81167 11.261719 260.88867 C 11.034719 260.97367 11.170391 261.14261 11.400391 261.22461 C 11.579391 261.28261 11.617297 261.32814 11.654297 261.36914 L 11.654297 262.20117 L 11.619141 262.22461 L 11.46875 262.25977 L 11.619141 262.30078 L 11.654297 262.31641 L 11.654297 262.42773 L 11.541016 263.06836 L 11.240234 263.06836 L 11.296875 263.20898 L 11.505859 263.26562 L 11.498047 263.27539 L 11.205078 263.27539 L 11.261719 263.41602 L 11.466797 263.46289 L 11.34375 264.13086 L 10.976562 264.13086 L 11.033203 264.27148 L 11.25 264.32422 L 10.939453 264.32422 L 10.996094 264.4668 L 11.261719 264.56445 L 11.158203 265.15234 L 11.148438 265.19141 L 10.755859 265.19141 L 10.8125 265.33008 L 11.025391 265.38672 L 10.720703 265.38672 L 10.777344 265.53125 C 10.777344 265.53125 10.945406 265.53181 11.066406 265.63281 L 11.003906 265.98828 L 10.617188 265.98828 L 10.617188 267.90039 L 10.087891 267.90039 L 10.087891 269.11328 L 9.3027344 269.11328 L 9.3027344 267.90039 L 8.859375 267.90039 L 6.4023438 265.38672 L 6.1972656 265.38672 L 3.7402344 267.90039 L 3.3007812 267.90039 L 3.3007812 269.11133 L 2.515625 269.11133 L 2.515625 267.90039 L 2.1464844 267.90039 L 2.1464844 265.98633 L 1.7578125 265.98633 L 1.6933594 265.63086 L 1.9746094 265.5293 L 2.03125 265.38672 L 1.7304688 265.38672 L 1.9394531 265.33008 L 2.0097656 265.19141 L 1.6113281 265.19141 L 1.6035156 265.15039 L 1.4941406 264.55469 L 1.7578125 264.46484 L 1.8125 264.32227 L 1.5097656 264.32227 L 1.7226562 264.27148 L 1.7792969 264.13086 L 1.4160156 264.13086 L 1.296875 263.46289 L 1.4902344 263.41406 L 1.5507812 263.27344 L 1.2597656 263.27344 L 1.2597656 263.26367 L 1.4570312 263.20703 L 1.5136719 263.06641 L 1.21875 263.06641 L 1.0976562 262.39844 L 1.0976562 262.35742 L 1.296875 262.25977 L 1.0976562 262.16602 L 1.0976562 261.37109 C 1.1376563 261.33709 1.1775625 261.28661 1.3515625 261.22461 C 1.5955625 261.14261 1.7212344 260.97172 1.4902344 260.88672 C 1.2602344 260.80972 1.5507813 260.71484 1.5507812 260.71484 C 1.5507812 260.71484 1.4449219 260.59809 1.1699219 260.74609 L 0.93554688 260.5918 L 0.890625 260.5293 L 0.80859375 260.48438 L 0.78515625 260.49414 L 0.76171875 260.48438 L 0.68164062 260.5293 L 0.63671875 260.5918 L 0.40625 260.74609 C 0.12925 260.59809 0.037109375 260.71484 0.037109375 260.71484 C 0.037109375 260.71484 0.31403125 260.80972 0.08203125 260.88672 L 0 260.94727 L 0 261.07617 L 0.22265625 261.22461 C 0.39465625 261.28661 0.43360938 261.33709 0.47460938 261.37109 L 0.47460938 262.19922 L 0.44140625 262.22266 L 0.29296875 262.25977 L 0.44140625 262.30078 L 0.47460938 262.31641 L 0.47460938 262.39844 L 0.35546875 263.06641 L 0.060546875 263.06641 L 0.11914062 263.20703 L 0.31445312 263.25586 L 0.31445312 263.27344 L 0.025390625 263.27344 L 0.08203125 263.41406 L 0.28125 263.46289 L 0.15820312 264.13086 L 0 264.13086 L 0 264.30273 L 0.072265625 264.32227 L 0 264.32227 L 0 264.52344 L 0.078125 264.55469 L 0 264.98242 L 0 318.66406 L 730.66797 318.66406 L 730.66797 287.7832 C 730.35597 287.9432 730.13477 288.15873 730.13477 288.42773 L 730.13477 288.42969 L 730.17578 288.48828 L 718.54102 294.11914 L 718.54102 267.54688 L 716.19531 267.54688 L 716.19531 257.48242 L 714.1875 257.48242 L 714.1875 244.57617 L 683.67578 244.57617 L 683.67578 270.99609 L 681.5957 270.99609 L 681.5957 273.3125 L 682.17969 273.3125 L 682.17969 274.81641 L 681.5957 274.81641 L 681.5957 277.13477 L 682.17969 277.13477 L 682.17969 278.63281 L 681.5957 278.63281 L 681.5957 280.95312 L 682.17969 280.95312 L 682.17969 282.45508 L 681.5957 282.45508 L 681.5957 284.76953 L 682.17969 284.76953 L 682.17969 285.66016 L 679.98438 285.66016 L 679.98438 313.92578 L 676.38281 313.92578 L 676.38281 313.10742 L 675.7832 313.10742 L 675.7832 311.82422 L 676.38281 311.82422 L 676.38281 310.53125 L 675.7832 310.53125 L 675.7832 309.24023 L 676.38281 309.24023 L 676.38281 307.94922 L 675.7832 307.94922 L 675.7832 306.65625 L 676.38281 306.65625 L 676.38281 305.36328 L 675.7832 305.36328 L 675.7832 304.07422 L 676.38281 304.07422 L 676.38281 302.78125 L 675.7832 302.78125 L 675.7832 301.48633 L 676.38281 301.48633 L 676.38281 300.20703 L 675.7832 300.20703 L 675.7832 298.91211 L 676.38281 298.91211 L 676.38281 297.61914 L 675.7832 297.61914 L 675.7832 296.33008 L 676.38281 296.33008 L 676.38281 295.03906 L 675.7832 295.03906 L 675.7832 293.74609 L 676.38281 293.74609 L 676.38281 292.45508 L 675.7832 292.45508 L 675.7832 291.17383 L 676.38281 291.17383 L 676.38281 289.88281 L 675.7832 289.88281 L 675.7832 288.58984 L 676.38281 288.58984 L 676.38281 287.29883 L 675.7832 287.29883 L 675.7832 286 L 676.38281 286 L 676.38281 284.7168 L 675.7832 284.7168 L 675.7832 283.41797 L 676.38281 283.41797 L 676.38281 282.12695 L 675.7832 282.12695 L 675.7832 280.84766 L 676.38281 280.84766 L 676.38281 279.55664 L 675.7832 279.55664 L 675.7832 278.26562 L 676.38281 278.26562 L 676.38281 276.96875 L 675.7832 276.96875 L 675.7832 275.67578 L 676.38281 275.67578 L 676.38281 274.38867 L 675.7832 274.38867 L 675.7832 273.09375 L 676.38281 273.09375 L 676.38281 271.80273 L 675.7832 271.80273 L 675.7832 270.52344 L 676.38281 270.52344 L 676.38281 269.23242 L 675.7832 269.23242 L 675.7832 267.93555 L 676.38281 267.93555 L 676.38281 266.64453 L 675.7832 266.64453 L 675.7832 265.35547 L 676.38281 265.35547 L 676.38281 264.06445 L 675.7832 264.06445 L 675.7832 262.76758 L 676.38281 262.76758 L 676.38281 261.48828 L 675.7832 261.48828 L 675.7832 260.19531 L 676.38281 260.19531 L 676.38281 258.90234 L 675.7832 258.90234 L 675.7832 257.61133 L 676.38281 257.61133 L 676.38281 256.31836 L 675.7832 256.31836 L 675.7832 255.02734 L 676.38281 255.02734 L 676.38281 253.73242 L 675.7832 253.73242 L 675.7832 252.44336 L 676.38281 252.44336 L 676.38281 251.01367 L 675.7832 251.01367 L 675.7832 249.00391 L 676.38281 249.00391 L 676.38281 239.04883 L 666.96875 239.04883 L 657.23242 243.87891 L 657.23242 234.10352 L 651.22852 234.10352 L 651.22852 226.22266 L 650.20312 226.22266 L 650.20312 224.84375 L 649.00781 224.84375 L 649.00781 222.9668 L 639.41797 212.68359 L 639.21289 212.68359 L 639.21289 211.91406 L 627.82812 211.91406 L 627.82812 212.68359 L 627.60547 212.68359 L 618.01953 222.9668 L 618.01953 224.84375 L 616.8125 224.84375 L 616.8125 226.22266 L 615.79102 226.22266 L 615.79102 234.10352 L 609.80469 234.10352 L 609.80469 256.95312 L 607.05664 256.95312 L 607.05664 264.00586 L 603.17383 264.00586 L 603.17383 256.95117 L 600.42773 256.95117 L 600.42773 234.10352 L 594.4375 234.10352 L 594.4375 226.22266 L 593.4082 226.22266 L 593.4082 224.84375 L 592.20703 224.84375 L 592.20703 222.9668 L 582.62305 212.68359 L 582.40039 212.68359 L 582.40039 211.91406 L 571.01758 211.91406 L 571.01758 212.68359 L 570.80078 212.68359 L 561.20703 222.9668 L 561.20703 224.84375 L 560.01172 224.84375 L 560.01172 226.22266 L 558.98242 226.22266 L 558.98242 234.10352 L 552.99414 234.10352 L 552.99414 256.95312 L 550.24805 256.95312 L 550.24805 264.00586 L 549.06445 264.00586 L 549.06445 304.83789 L 538.72461 304.83789 L 538.72461 303.73633 L 537.84375 303.73633 L 537.84375 302.22656 L 537.16797 302.22656 L 537.16797 301.21094 L 537.84375 301.21094 L 537.84375 298.93555 L 537.16797 298.93555 L 537.16797 297.91992 L 537.84375 297.91992 L 537.84375 295.64648 L 537.16797 295.64648 L 537.16797 294.63281 L 537.84375 294.63281 L 537.84375 292.35938 L 537.16797 292.35938 L 537.16797 291.33398 L 537.84375 291.33398 L 537.84375 289.07031 L 537.16797 289.07031 L 537.16797 288.04102 L 537.84375 288.04102 L 537.84375 285.7832 L 537.16797 285.7832 L 537.16797 284.75391 L 537.84375 284.75391 L 537.84375 282.48438 L 537.16797 282.48438 L 537.16797 281.4668 L 537.84375 281.4668 L 537.84375 279.19141 L 537.16797 279.19141 L 537.16797 278.17969 L 537.84375 278.17969 L 537.84375 275.9082 L 537.16797 275.9082 L 537.16797 274.88281 L 537.84375 274.88281 L 537.84375 272.61719 L 537.16797 272.61719 L 537.16797 271.5957 L 537.84375 271.5957 L 537.84375 269.33203 L 537.16797 269.33203 L 537.16797 268.30664 L 537.84375 268.30664 L 537.84375 266.0332 L 537.16797 266.0332 L 537.16797 265.01953 L 537.84375 265.01953 L 537.84375 262.74414 L 537.16797 262.74414 L 537.16797 261.73047 L 537.84375 261.73047 L 537.84375 259.45312 L 537.16797 259.45312 L 537.16797 258.44531 L 537.84375 258.44531 L 537.84375 256.17383 L 537.16797 256.17383 L 537.16797 255.14258 L 537.84375 255.14258 L 537.84375 252.88281 L 537.16797 252.88281 L 537.16797 251.85352 L 537.84375 251.85352 L 537.84375 249.5918 L 537.16797 249.5918 L 537.16797 248.56641 L 537.84375 248.56641 L 537.84375 246.29297 L 537.16797 246.29297 L 537.16797 245.2793 L 537.84375 245.2793 L 537.84375 243.00781 L 537.16797 243.00781 L 537.16797 241.99219 L 537.84375 241.99219 L 537.84375 239.7207 L 537.16797 239.7207 L 537.16797 238.70312 L 537.84375 238.70312 L 537.84375 236.43164 L 537.16797 236.43164 L 537.16797 235.4043 L 537.84375 235.4043 L 537.84375 233.14258 L 537.16797 233.14258 L 537.16797 232.11328 L 537.84375 232.11328 L 537.84375 229.84375 L 537.16797 229.84375 L 537.16797 228.82617 L 537.84375 228.82617 L 537.84375 226.55469 L 537.16797 226.55469 L 537.16797 225.53906 L 537.84375 225.53906 L 537.84375 223.25977 L 537.16797 223.25977 L 537.16797 222.25195 L 537.84375 222.25195 L 537.84375 219.97852 L 537.16797 219.97852 L 537.16797 218.96484 L 537.84375 218.96484 L 537.84375 216.69141 L 537.16797 216.69141 L 537.16797 216.30078 L 531.80469 216.30078 L 531.80469 211.44141 L 489.11133 211.44141 L 489.11133 216.30078 L 481.69531 216.30078 L 481.69531 264.18359 C 469.55031 264.33659 458.67883 269.10725 451.42383 276.53125 L 451.42383 275.08789 L 451.66406 275.08789 L 451.66406 274.54688 L 450.86133 274.01758 L 450.86133 270.58594 L 451.37695 270.58594 L 451.37695 269.75977 L 450.86133 269.75977 L 450.86133 255.00977 L 453.35742 251.44141 L 449.79492 251.44141 L 447.65625 243.71484 L 442.66602 240.44141 L 442.66797 240.39062 C 442.47997 240.44962 442.28384 240.49488 442.08984 240.54688 L 442.08984 235.98047 L 442.43945 235.73633 L 442.43945 235.55859 L 442.75586 235.55859 L 442.75586 235.4043 L 442.34375 235.4043 L 439.68359 226.95117 C 439.76659 226.83817 439.83984 226.72713 439.83984 226.57812 C 439.83984 226.29812 439.64034 226.11081 439.40234 226.00781 L 439.40234 225.14258 L 438.92773 225.14258 L 438.92773 226.00781 C 438.68373 226.10181 438.48828 226.29813 438.48828 226.57812 C 438.48828 226.72713 438.56353 226.83808 438.64453 226.95508 L 435.98633 235.4043 L 435.57617 235.4043 L 435.57617 235.55859 L 435.88281 235.55859 L 435.88281 235.73633 L 436.24219 235.98242 L 436.24219 241.02539 A 21.434 21.434 0 0 1 435.19922 240.90234 L 430.91211 243.71484 L 428.77344 251.44141 L 425.21094 251.44141 L 427.70312 255.00977 L 427.70312 269.26172 L 427.51172 269.75977 L 426.95312 269.75977 L 426.95312 270.58594 L 427.48438 270.58594 L 427.48438 274.01367 L 426.65234 274.54688 L 426.65234 275.08789 L 426.89258 275.08789 L 426.89258 279.52539 L 424.14062 285.03516 L 421.49414 285.03516 L 421.49414 193.75391 L 413.01758 193.75391 L 413.01758 178.21484 L 410.67578 178.21484 L 410.67578 168.60742 L 409.44336 168.60742 L 409.44336 167.99219 L 407.83789 167.99219 L 407.83789 159.61719 L 405.87109 159.61719 L 405.87109 146.08203 L 405.66797 146.08203 L 405.66797 145.21875 L 404.85547 145.21875 L 404.85547 142 L 403.47461 140.81836 L 403.47461 139.13867 L 402.59961 139.13867 L 402.59961 138.12305 L 402.16016 138.12305 L 402.16016 134.60547 L 401.28125 134.60547 L 401.28125 134.23633 L 399.52734 133.52734 L 399.52734 128.5957 L 397.03711 128.5957 L 397.03711 128.23828 L 392.1582 128.23828 L 392.1582 126.9082 L 390.83789 126.9082 L 390.83789 126.30859 L 389.7207 126.30859 L 389.7207 118.97461 A 0.253 0.253 0 0 0 389.47266 118.71875 L 388.44141 118.71875 L 388.44141 117.7832 L 386.05078 117.7832 L 386.05078 114.63086 A 22.107 22.107 0 0 1 385.37305 114.57617 L 385.37305 117.7832 L 382.98438 117.7832 L 382.98438 118.71875 L 381.95898 118.71875 A 0.25 0.25 0 0 0 381.70703 118.97461 L 381.70703 126.30859 L 380.5957 126.30859 L 380.5957 126.9082 L 379.27344 126.9082 L 379.27344 128.23828 L 374.37891 128.23828 L 374.37891 128.5957 L 371.89648 128.5957 L 371.89648 133.52734 L 370.14453 134.23633 L 370.14453 134.60547 L 369.26953 134.60547 L 369.26953 138.12305 L 368.83203 138.12305 L 368.83203 139.13867 L 367.95117 139.13867 L 367.95117 140.81055 L 366.55664 142 L 366.55664 145.2207 L 365.76367 145.2207 L 365.76367 146.08203 L 365.55664 146.08203 L 365.55664 159.61914 L 363.58398 159.61914 L 363.58398 167.99219 L 361.97656 167.99219 L 361.97656 168.60742 L 360.75195 168.60742 L 360.75195 178.21484 L 358.41211 178.21484 L 358.41211 193.75586 L 349.93164 193.75586 L 349.93164 280.68164 L 343.87109 280.68164 L 343.87109 251.53516 L 340.02539 251.53516 L 340.02539 230.94922 L 318.16016 230.94922 L 318.1582 204.44727 L 316.59961 204.44727 L 316.59961 200.97852 L 314.89453 200.97852 L 314.89453 200.33594 L 312.30664 194.85352 L 312.30664 193.79102 L 311.85742 193.79102 L 311.85742 190.49219 L 310.89062 190.49219 L 310.89062 188.25195 L 310.24219 188.25195 L 310.24219 183.64844 L 310.71484 183.64844 L 310.71484 182.12695 L 310.1875 182.12695 L 310.1875 181.65234 L 310.01367 181.46875 L 306.42578 181.46875 L 306.25195 181.65234 L 306.25195 182.12695 L 305.71875 182.12695 L 305.71875 183.64844 L 306.18359 183.64844 L 306.18359 188.25195 L 305.53711 188.25195 L 305.53711 190.49219 L 304.57031 190.49219 L 304.57031 193.79102 L 304.13086 193.79102 L 304.13086 194.85352 L 301.54688 200.33594 L 301.54688 200.97852 L 299.83789 200.97852 L 299.83789 204.44727 L 294.96094 204.44727 L 294.96094 260.37891 L 291.12891 260.37891 L 291.12891 287.93164 L 288.86719 287.93164 L 288.86719 148.54297 L 287.95312 148.54297 L 287.95312 148.2168 L 284.13867 148.2168 L 284.13867 139.4043 L 283.38672 139.4043 L 283.38672 139.08008 L 281.02148 139.08008 L 281.02148 127.05273 L 280.22656 127.05273 L 280.22656 126.65625 L 277.67578 126.65625 L 277.67578 125.48047 L 276.46289 125.48047 L 276.46289 124.62891 A 0.701 0.701 0 0 0 275.75977 123.92188 L 275.67969 123.92188 C 274.85969 112.94487 271.09506 103.19948 265.53906 96.396484 A 32.714 32.714 0 0 0 261.58203 92.3125 A 27.198 27.198 0 0 0 257.16211 89.181641 L 257.15234 89.181641 L 257.15234 89.171875 L 256.78125 88.976562 z M 256.79297 90.707031 A 25.837 25.837 0 0 1 260.60156 93.455078 A 30.716 30.716 0 0 1 264.36133 97.341797 C 269.72133 103.9008 273.36297 113.30387 274.16797 123.92188 L 272.94531 123.92188 C 272.13931 114.73287 269.07548 106.53173 264.39648 100.80273 A 27.419 27.419 0 0 0 260.98047 97.28125 A 23.075 23.075 0 0 0 257.16211 94.583984 L 257.15234 94.572266 L 256.7832 94.375 L 256.42578 94.572266 C 251.67178 97.249266 247.61005 101.92261 244.74805 107.84961 C 244.20605 109.00761 243.68523 110.19245 243.24023 111.43945 C 241.82323 115.25245 240.87219 119.46188 240.49219 123.92188 L 239.43945 123.92188 C 239.83945 118.67288 240.90764 113.70705 242.55664 109.24805 A 46.424 46.424 0 0 1 244.26367 105.2207 C 247.36767 98.771703 251.71797 93.683031 256.79297 90.707031 z M 256.79297 96.105469 A 21.89 21.89 0 0 1 260 98.425781 A 27.044 27.044 0 0 1 263.2207 101.75977 C 266.6927 106.00577 269.20108 111.71858 270.58008 118.14258 L 269.50781 118.14258 C 268.22681 113.02058 266.1375 108.44456 263.3125 104.97656 A 23.046 23.046 0 0 0 260.41797 101.99219 A 19.342 19.342 0 0 0 257.16211 99.695312 L 257.15234 99.681641 L 256.7832 99.484375 L 256.42578 99.695312 C 252.37378 101.95731 248.92591 105.92352 246.50391 110.97852 C 246.04391 111.94752 245.60098 112.96372 245.20898 114.01172 C 244.71898 115.32772 244.3227 116.71858 243.9707 118.14258 L 242.91406 118.14258 C 243.37006 115.99658 243.92925 113.90794 244.65625 111.96094 C 245.09525 110.77094 245.58005 109.61877 246.12305 108.50977 C 248.76305 103.00677 252.46897 98.656469 256.79297 96.105469 z M 256.79297 101.2168 C 257.70497 101.7728 258.59373 102.40681 259.42773 103.13281 C 260.38373 103.95281 261.29244 104.89955 262.14844 105.93555 C 264.76844 109.15355 266.72184 113.39458 267.96484 118.14258 L 266.87891 118.14258 C 265.79291 114.68258 264.21552 111.60297 262.22852 109.16797 A 19.556 19.556 0 0 0 259.85156 106.69727 A 16.264 16.264 0 0 0 257.16211 104.80469 L 257.15234 104.79492 L 256.7832 104.59766 L 256.42578 104.80469 C 253.08878 106.67469 250.25281 109.9398 248.25781 114.0918 A 29.8 29.8 0 0 0 247.19531 116.58594 C 247.01331 117.07394 246.93534 117.63458 246.77734 118.14258 L 245.6582 118.14258 C 245.9762 116.93058 246.21586 115.6613 246.63086 114.5293 C 247.01086 113.5293 247.41528 112.55605 247.86328 111.62305 C 250.07828 107.01805 253.18197 103.3738 256.79297 101.2168 z M 256.79297 106.33984 C 257.51197 106.76484 258.20238 107.27384 258.85938 107.83984 C 259.63338 108.50984 260.36945 109.27228 261.06445 110.11328 C 262.85145 112.30528 264.31703 115.04458 265.33203 118.14258 L 265.24414 118.14258 A 11.279 11.279 0 0 0 263.54297 117.07031 C 262.85897 115.66031 262.08973 114.34056 261.17773 113.22656 A 15.634 15.634 0 0 0 259.2832 111.27734 A 12.325 12.325 0 0 0 257.16211 109.7793 L 257.15234 109.76562 L 256.7832 109.57031 L 256.42578 109.7793 C 253.78378 111.2533 251.53217 113.83923 249.95117 117.11523 L 249.94336 117.12891 C 249.36236 117.43291 248.83175 117.77058 248.34375 118.14258 L 248.33594 118.14258 C 248.44594 117.80758 248.49123 117.42847 248.61523 117.10547 A 26.72 26.72 0 0 1 249.61719 114.74023 C 251.40719 111.02323 253.89797 108.08284 256.79297 106.33984 z M 256.79297 111.3125 C 257.31297 111.6335 257.82169 112.00488 258.30469 112.42188 A 14.67 14.67 0 0 1 260.01172 114.18164 C 260.49672 114.77264 260.90027 115.47506 261.32227 116.16406 A 15.834 15.834 0 0 0 256.79297 115.51172 C 255.16297 115.51172 253.60817 115.75936 252.20117 116.19336 C 253.45817 114.09236 255.02497 112.3965 256.79297 111.3125 z M 306.95898 183.64844 L 307.83203 183.64844 L 307.83203 188.25195 L 306.95898 188.25195 L 306.95898 183.64844 z M 308.5957 183.64844 L 309.48047 183.64844 L 309.48047 188.25195 L 308.5957 188.25195 L 308.5957 183.64844 z M 85.332031 296.33008 L 85.607422 296.33008 L 85.607422 296.76562 L 86.693359 297.81445 L 86.691406 299.18164 L 85.332031 299.18164 L 85.332031 296.33008 z "
     id="path74" />
</svg>
