<svg id="U" xmlns="http://www.w3.org/2000/svg" viewBox="0 0 86.6 98.67"><defs><style>.cls-1{fill:#fff;}.cls-2{fill:none;}</style></defs><polygon class="cls-1" points="2.17 23.67 43.3 0 53.69 6 53.69 17.75 74.04 17.75 84.44 23.67 43.3 47.42 32.97 41.46 58.69 26.61 36.94 27.42 38.34 14.86 12.62 29.71 2.17 23.67"/><polygon class="cls-1" points="45.47 51.17 45.47 98.61 86.6 74.86 86.53 62.97 55.86 80.67 55.86 57.17 86.6 39.42 86.6 27.42 45.47 51.17"/><polygon class="cls-1" points="0 74.86 41.14 98.67 41.13 51.17 30.74 45.17 30.74 80.67 10.39 68.92 10.39 33.42 0 27.42 0 74.86"/><path class="cls-2" d="M43.3,87.92"/></svg>