<svg xmlns="http://www.w3.org/2000/svg" width="730.667" height="317">
    <path fill="#100f0d" d="M309.481 188.252h-.885v-4.604h.885zm-1.648 0h-.874v-4.604h.874zm-34.888-64.33c-.806-9.189-3.87-17.391-8.549-23.12a27.419 27.419 0 0 0-3.415-3.52 23.075 23.075 0 0 0-3.818-2.698l-.01-.012-.37-.197-.358.197c-4.754 2.677-8.814 7.35-11.676 13.277-.542 1.158-1.064 2.344-1.509 3.591-1.417 3.813-2.367 8.021-2.747 12.481h-1.054c.4-5.249 1.469-10.214 3.118-14.673a46.424 46.424 0 0 1 1.706-4.027c3.104-6.449 7.454-11.537 12.529-14.513a25.837 25.837 0 0 1 3.81 2.747 30.716 30.716 0 0 1 3.76 3.886c5.36 6.559 9 15.962 9.805 26.58zm-3.437-5.78c-1.281-5.122-3.37-9.697-6.195-13.165a23.046 23.046 0 0 0-2.896-2.984 19.342 19.342 0 0 0-3.254-2.298l-.01-.014-.37-.196-.358.21c-4.052 2.262-7.5 6.229-9.922 11.284-.46.969-.902 1.984-1.294 3.032-.49 1.316-.886 2.708-1.238 4.132h-1.056c.456-2.146 1.014-4.236 1.741-6.183.439-1.19.924-2.341 1.467-3.45 2.64-5.503 6.345-9.854 10.669-12.405a21.89 21.89 0 0 1 3.208 2.32 27.044 27.044 0 0 1 3.221 3.334c3.472 4.246 5.98 9.96 7.359 16.384zm-2.63 0c-1.086-3.46-2.662-6.54-4.649-8.975a19.556 19.556 0 0 0-2.377-2.47 16.264 16.264 0 0 0-2.69-1.893l-.009-.01-.37-.197-.358.207c-3.337 1.87-6.173 5.136-8.168 9.288a29.8 29.8 0 0 0-1.062 2.493c-.182.488-.26 1.05-.418 1.558h-1.118c.318-1.212.557-2.482.972-3.614.38-1 .785-1.972 1.233-2.905 2.215-4.605 5.317-8.25 8.928-10.407.912.556 1.801 1.19 2.635 1.916.956.82 1.865 1.766 2.721 2.802 2.62 3.218 4.573 7.46 5.816 12.208zm-1.633 0a11.279 11.279 0 0 0-1.702-1.071c-.684-1.41-1.454-2.73-2.366-3.844a15.634 15.634 0 0 0-1.894-1.95 12.325 12.325 0 0 0-2.12-1.498l-.01-.014-.37-.194-.358.208c-2.642 1.474-4.892 4.06-6.473 7.336l-.008.013c-.581.304-1.112.643-1.6 1.015h-.008c.11-.335.155-.715.279-1.038a26.72 26.72 0 0 1 1.002-2.365c1.79-3.717 4.28-6.657 7.175-8.4.719.425 1.41.933 2.067 1.499.774.67 1.51 1.433 2.205 2.274 1.787 2.192 3.253 4.932 4.268 8.03zm-8.453-2.63c-1.63 0-3.183.247-4.59.681 1.257-2.101 2.822-3.797 4.59-4.881.52.321 1.03.693 1.513 1.11a14.67 14.67 0 0 1 1.706 1.76c.485.591.89 1.294 1.312 1.983a15.834 15.834 0 0 0-4.531-.653zm-170.1 183.67h-1.359v-2.851h.275v.434l1.085 1.05zm643.443-10.753l.04.06-11.634 5.63v-26.572h-2.346v-10.064h-2.008v-12.906h-30.512v26.42h-2.079v2.316h.583v1.503h-.583v2.319h.583v1.498h-.583v2.32h.583v1.503h-.583v2.313h.583v.891h-2.194v28.265h-3.602v-.817h-.599v-1.284h.599v-1.293h-.599v-1.29h.599v-1.292h-.599v-1.293h.599v-1.292h-.599v-1.29h.599v-1.293h-.599v-1.294h.599v-1.28h-.599v-1.294h.599v-1.293h-.599v-1.29h.599v-1.291h-.599v-1.292h.599v-1.292h-.599v-1.282h.599v-1.29h-.599v-1.294h.599v-1.29h-.599V286h.599v-1.284h-.599v-1.298h.599v-1.292h-.599v-1.278h.599v-1.292h-.599v-1.29h.599v-1.298h-.599v-1.292h.599v-1.288h-.599v-1.294h.599v-1.292h-.599v-1.278h.599v-1.292h-.599v-1.297h.599v-1.29h-.599v-1.29h.599v-1.29h-.599v-1.297h.599v-1.28h-.599v-1.293h.599v-1.293h-.599v-1.291h.599v-1.293h-.599v-1.291h.599v-1.295h-.599v-1.288h.599v-1.43h-.599v-2.01h.599v-9.956h-9.414l-9.736 4.831v-9.776h-6.004v-7.881h-1.026v-1.378h-1.195v-1.877l-9.59-10.283h-.206v-.77h-11.384v.77h-.223l-9.586 10.283v1.877h-1.207v1.378h-1.021v7.881h-5.987v22.85h-2.747v7.053h-3.884v-7.054h-2.746v-22.849h-5.99v-7.881h-1.028v-1.378h-1.202v-1.877l-9.583-10.283h-.224v-.77h-11.383v.77h-.216l-9.593 10.283v1.877h-1.197v1.378h-1.028v7.881h-5.988v22.85h-2.747v7.053h-1.184v40.832h-10.339v-1.102h-.882v-1.509h-.676v-1.017h.676v-2.274h-.676v-1.016h.676v-2.274h-.676v-1.014h.676v-2.272h-.676v-1.026h.676v-2.263h-.676v-1.03h.676v-2.257h-.676v-1.03h.676v-2.27h-.676v-1.017h.676v-2.275h-.676v-1.013h.676v-2.27h-.676v-1.026h.676v-2.265h-.676v-1.022h.676v-2.264h-.676v-1.025h.676v-2.273h-.676v-1.014h.676v-2.276h-.676v-1.013h.676v-2.277h-.676v-1.008h.676v-2.272h-.676v-1.032h.676v-2.259h-.676v-1.03h.676v-2.262h-.676v-1.024h.676v-2.275h-.676v-1.013h.676v-2.272h-.676v-1.015h.676v-2.272h-.676v-1.016h.676v-2.273h-.676v-1.027h.676v-2.261h-.676v-1.03h.676v-2.27h-.676v-1.016h.676v-2.272h-.676v-1.016h.676v-2.279h-.676v-1.009h.676v-2.272h-.676v-1.015h.676v-2.273h-.676v-.39h-5.362v-4.86h-42.693v4.86h-7.416v47.882c-12.145.153-23.017 4.924-30.272 12.348v-1.444h.241v-.54l-.804-.53v-3.431h.515v-.827h-.515v-14.75l2.496-3.567h-3.562l-2.139-7.728-4.99-3.272.002-.051c-.188.059-.385.104-.579.156v-4.567l.35-.244v-.178h.317v-.154h-.412l-2.66-8.452c.083-.113.156-.225.156-.374 0-.28-.199-.467-.437-.57v-4.656h1.762v-.472h-1.762v-2.957h-.476v2.957h-1.764v.472h1.764v4.656c-.244.094-.438.29-.438.57 0 .149.074.261.155.378l-2.657 8.448h-.411v.154h.307v.178l.36.246v5.044a21.434 21.434 0 0 1-1.043-.124l-4.287 2.812-2.14 7.728h-3.562l2.493 3.568v14.252l-.192.497h-.559v.827h.532v3.428l-.833.533v.54h.241v4.439l-2.752 5.51h-2.646v-91.282h-8.478v-15.54h-2.341v-9.607h-1.233v-.615h-1.606v-8.374h-1.965v-13.536h-.204v-.863h-.812V142l-1.381-1.181v-1.68h-.876v-1.015h-.439v-3.519h-.879v-.369l-1.753-.708v-4.933h-2.49v-.356h-4.88v-1.33h-1.32v-.6h-1.117v-7.334a.253.253 0 0 0-.249-.256h-1.03v-.936h-2.391v-3.152a22.107 22.107 0 0 1-.678-.055v3.207h-2.388v.936h-1.026a.25.25 0 0 0-.251.256v7.334h-1.112v.6h-1.323v1.33h-4.894v.356h-2.482v4.933l-1.752.708v.37h-.876v3.518h-.437v1.015h-.881v1.672L366.557 142v3.22h-.794v.863h-.207v13.536h-1.972v8.374h-1.608v.615h-1.224v9.607h-2.34v15.54h-8.48v86.926h-6.06v-29.146h-3.847v-20.586H318.16l-.001-26.501H316.6v-3.47h-1.706v-.643l-2.588-5.482v-1.062h-.448v-3.299h-.968v-2.24h-.648v-4.604h.473v-1.521h-.528v-.475l-.173-.184h-3.588l-.175.184v.475h-.532v1.521h.465v4.604h-.646v2.24h-.968v3.299h-.44v1.062l-2.584 5.482v.644h-1.708v3.469h-4.878v55.93h-3.832v27.554h-2.261v-139.39h-.913v-.325h-3.816v-8.812h-.752v-.324h-2.364v-12.029h-.796v-.395h-2.55v-1.177h-1.213v-.852a.701.701 0 0 0-.703-.707h-.081c-.82-10.977-4.584-20.721-10.14-27.524a32.714 32.714 0 0 0-3.956-4.085 27.198 27.198 0 0 0-4.421-3.13h-.01v-.011l-.37-.195-.358.207c-5.513 3.09-10.209 8.505-13.522 15.38a53.625 53.625 0 0 0-1.766 4.164c-1.706 4.621-2.808 9.762-3.205 15.194h-.105a.712.712 0 0 0-.716.707v.852h-1.198v1.177h-2.552v.395h-.796v12.03h-2.376v.323h-.749v8.812h-3.82v.326h-.899v143.382h-4.268v-60.212a.662.662 0 0 0-.66-.649h-3.82v-2.096h.083a.667.667 0 0 0 .659-.66v-2.065c0-.355-.3-.658-.659-.658h-3.968v-2.097h.219c.36 0 .657-.292.657-.65v-2.063a.662.662 0 0 0-.657-.656h-3.888v-2.103h.149a.654.654 0 0 0 .657-.653v-2.055a.66.66 0 0 0-.657-.66H204.6v-2.099h.217a.656.656 0 0 0 .662-.66v-2.061a.646.646 0 0 0-.662-.647H201v-2.1h.083a.664.664 0 0 0 .656-.656v-2.066a.666.666 0 0 0-.656-.659h-3.75v-2.568c.296-.068.538-.293.538-.617v-5.202a.657.657 0 0 0-.655-.66h-15.504l-.253-2.796v2.796h-15.863v109.592h-1.836v-45.798h-5.17v-72.95h-4.8v-5.321h-2.273v-.668l-.136-.14h-.845l-.135.14v.668h-5.634v-8.641c0-1.523-5.895-2.759-13.116-2.759-7.21 0-13.105 1.236-13.105 2.759v8.641h-7.556v-.564h.07l.067-.07v-.77l-.068-.073h-.371l-.068.073v.77l.068.07h.07v.564h-1.234v5.321h-4.798v72.95h-5.17v29.952h-7.36l-3.358 3.918-3.266 3.807h-.239v-38.69l-4.546-.965v-12.401H78.34v-2.123l-2.718-1.632v-13.217l-9.127-1.79-3.321-11.974H62.3v-3.665h.219v-.524H62.3v-.918h-.872v.918h-.436v.524h.436v3.665h-.22l-4.205 12.399-8.568 2.017v14.524l-8.971 2.937h2.718v11.423l-5.436 1.307v16.142l-.173-.834-1.831 8.849-1.808 8.759h-.11v.201h.451v1.388l.345 1.73h-.265v.229h.314l.149.733v.305l-2.643-3.08-4.003-4.674-4.002 4.674-.485.564v-1.736l.046-.15v-.408h.16v-.1l-.206-.255v-9.263l.115-.34v-.206h.265v-.234l.461-.398v-.195h.174v-.164h-.358v-.152l-.657-.07v-7.26l.115-.486v-.216h.195v-.235l.324-.396v-.197h.117v-.175h-.243v-.14l-.337-.049v-4.112h-.385l-.065-.356.279-.101.069-.144h-.312l.221-.056.056-.139h-.394l-.009-.04-.11-.596.26-.09.058-.142h-.302l.208-.052.057-.141h-.362l-.122-.668.197-.047.069-.141h-.3v-.01l.198-.056.067-.141h-.305l-.11-.604v-.105l.184-.099-.184-.093v-.798c.04-.041.074-.086.242-.144.242-.082.381-.252.153-.337-.235-.077.044-.173.044-.173s-.104-.115-.382.033l-.228-.156-.037-.061-.092-.046-.024.011-.01-.01-.094.045-.033.061-.23.156c-.29-.148-.383-.033-.383-.033s.279.096.047.173c-.23.085-.092.255.138.337.18.058.213.103.255.144v.832l-.034.023-.151.036.15.041.035.016v.11l-.115.641h-.3l.059.141.2.056v.01h-.295l.058.141.203.047-.123.668h-.369l.07.141.206.052h-.31l.068.143.255.098-.101.587-.014.04h-.392l.059.139.213.056h-.306l.056.144.288.101-.062.356h-.387v1.913h-.969v1.212h-.763v-1.212H16.94v1.212h-.773v-1.212h-1.478v1.212h-.76v-1.212h-.599v-1.913h-.387l-.066-.356.277-.101.07-.144h-.311l.22-.056.057-.139h-.395l-.009-.04-.11-.596.26-.09.059-.142h-.3l.206-.052.059-.141h-.363l-.121-.668.192-.047.06-.141h-.288v-.01l.196-.056.06-.141h-.298l-.108-.604v-.105l.186-.099-.186-.093v-.798c.04-.041.075-.086.243-.144.241-.082.368-.252.149-.337-.231-.077.047-.173.047-.173s-.106-.115-.38.033l-.231-.156-.037-.061-.09-.046-.023.011-.013-.01-.092.045-.035.061-.231.156c-.29-.148-.381-.033-.381-.033s.277.096.045.173c-.227.085-.09.255.14.337.179.058.216.103.253.144v.832l-.034.023-.151.036.151.041.034.016v.11l-.113.641h-.301l.057.141.208.056-.007.01h-.293l.056.141.205.047-.122.668h-.368l.058.141.216.052h-.31l.057.143.264.098-.102.587-.01.04h-.394l.058.139.213.056h-.305l.056.144s.168 0 .289.101l-.062.356h-.387v1.913h-.53v1.212h-.785v-1.212H8.86l-2.457-2.514h-.206L3.74 267.9H3.3v1.212h-.784V267.9h-.37v-1.913h-.389l-.064-.356.282-.101.056-.144h-.3l.209-.056.07-.139h-.398l-.009-.04-.109-.596.263-.09.056-.142H1.51l.212-.052.058-.141h-.364l-.12-.668.195-.047.059-.141h-.29v-.01l.198-.056.056-.141h-.295l-.122-.668v-.041l.199-.099-.199-.093v-.794c.04-.034.081-.086.255-.148.244-.082.37-.252.139-.337-.23-.077.059-.173.059-.173s-.106-.115-.381.033l-.234-.156-.044-.061-.082-.046-.023.011-.024-.01-.08.045-.045.061-.23.156c-.277-.148-.37-.033-.37-.033s.278.096.046.173l-.083.06v.13l.222.147c.172.062.212.114.253.148v.828l-.033.023-.15.036.15.041.033.016v.083l-.12.668H.06l.06.141.195.048v.018H.026l.057.141.198.047-.123.668H0v.172l.073.021H0v.2l.078.032-.078.428v53.681h730.667v-30.88c-.312.16-.532.375-.532.644"/>
</svg>
