<svg xmlns="http://www.w3.org/2000/svg" xmlns:xlink="http://www.w3.org/1999/xlink" viewBox="0 0 86.6 98.61"><defs><style>.cls-1{fill:#494a77;}.cls-2{fill:none;}.cls-3{fill:url(#linear-gradient);}</style><linearGradient id="linear-gradient" x1="9.42" y1="84.28" x2="77.18" y2="16.52" gradientUnits="userSpaceOnUse"><stop offset="0" stop-color="#7371b5"/><stop offset="0.26" stop-color="#716fb2"/><stop offset="0.45" stop-color="#6b68a9"/><stop offset="0.62" stop-color="#605d99"/><stop offset="0.77" stop-color="#514d83"/><stop offset="0.91" stop-color="#3d3866"/><stop offset="1" stop-color="#2f2951"/></linearGradient></defs><g id="C"><path class="cls-1" d="M86.6,62.92"/><path class="cls-2" d="M41.14,98.61"/><path class="cls-1" d="M45.47,51.17"/><path class="cls-1" d="M45.47,98.61"/><path class="cls-1" d="M86.6,62.92"/><path class="cls-1" d="M86.6,62.92"/><path class="cls-1" d="M55.86,80.67"/><path class="cls-1" d="M55.86,57.17"/><path class="cls-1" d="M86.6,25"/><path class="cls-2" d="M86.6,27.42"/><path class="cls-1" d="M86.6,39.42"/><path class="cls-1" d="M86.6,39.42"/><path class="cls-1" d="M45.47,51.17"/></g><g id="U"><path class="cls-3" d="M2.23,23.71,43.3,0,53.69,6V17.75H74l10.33,6L43.3,47.42,33,41.46,58.69,26.61l-21.75.81,1.4-12.56L12.62,29.71ZM45.47,51.17V98.61L86.6,74.86V62.92L55.86,80.67V57.17L86.6,39.42v-12ZM0,74.86,41.14,98.61V51.17l-10.39-6v35.5L10.39,68.92V33.42L0,27.42Z"/><path class="cls-2" d="M43.3,87.92"/></g></svg>